<svg xmlns="http://www.w3.org/2000/svg" version="1.1" xmlns:xlink="http://www.w3.org/1999/xlink" xmlns:svgjs="http://svgjs.dev/svgjs" width="1000" height="136" viewBox="0 0 1000 136"><g transform="matrix(1,0,0,1,-0.6060606060606233,0.17154791322010965)"><svg viewBox="0 0 396 54" data-background-color="#5e1914" preserveAspectRatio="xMidYMid meet" height="136" width="1000" xmlns="http://www.w3.org/2000/svg" xmlns:xlink="http://www.w3.org/1999/xlink"><g id="tight-bounds" transform="matrix(1,0,0,1,0.2400000000000091,-0.06811461260210194)"><svg viewBox="0 0 395.52 54.13622922520419" height="54.13622922520419" width="395.52"><g><svg viewBox="0 0 658.7895646711332 90.17087096533412" height="54.13622922520419" width="395.52"><g transform="matrix(1,0,0,1,263.26956467113325,5.18683361053003)"><svg viewBox="0 0 395.52 79.79720374427406" height="79.79720374427406" width="395.52"><g id="textblocktransform"><svg viewBox="0 0 395.52 79.79720374427406" height="79.79720374427406" width="395.52" id="textblock"><g><svg viewBox="0 0 395.52 79.79720374427406" height="79.79720374427406" width="395.52"><g transform="matrix(1,0,0,1,0,0)"><svg width="395.52" viewBox="1.05 -43.35 251.03 50.65" height="79.79720374427406" data-palette-color="#b91c1c"><path d="M12.1 0.4Q6.25 0.4 3.65-2.5 1.05-5.4 1.05-11.85L1.05-11.85 1.05-16.05 9.5-16.05 9.5-10.7Q9.5-7.5 11.55-7.5L11.55-7.5Q12.7-7.5 13.15-8.18 13.6-8.85 13.6-10.45L13.6-10.45Q13.6-12.55 13.1-13.93 12.6-15.3 11.83-16.23 11.05-17.15 9.05-19.1L9.05-19.1 5.35-22.8Q1.05-27 1.05-32.1L1.05-32.1Q1.05-37.6 3.58-40.48 6.1-43.35 10.95-43.35L10.95-43.35Q16.75-43.35 19.3-40.28 21.85-37.2 21.85-30.65L21.85-30.65 13.1-30.65 13.05-33.6Q13.05-34.45 12.58-34.95 12.1-35.45 11.25-35.45L11.25-35.45Q10.25-35.45 9.75-34.9 9.25-34.35 9.25-33.4L9.25-33.4Q9.25-31.3 11.65-29.05L11.65-29.05 16.65-24.25Q18.4-22.55 19.55-21.03 20.7-19.5 21.4-17.43 22.1-15.35 22.1-12.5L22.1-12.5Q22.1-6.15 19.78-2.88 17.45 0.4 12.1 0.4L12.1 0.4ZM24.8 0L24.8-43.2 33.8-43.2 33.8-33Q35.2-37 39.15-37L39.15-37Q42.85-37 44.75-34.65 46.65-32.3 46.65-28.2L46.65-28.2 46.65 0 37.9 0 37.9-27.65Q37.9-28.85 37.35-29.6 36.8-30.35 35.75-30.35L35.75-30.35Q34.85-30.35 34.32-29.58 33.8-28.8 33.8-27.7L33.8-27.7 33.8 0 24.8 0ZM60.7 0.4Q49.75 0.4 49.75-10.95L49.75-10.95 49.75-25.65Q49.75-30.85 52.67-33.93 55.59-37 60.7-37L60.7-37Q65.8-37 68.72-33.93 71.65-30.85 71.65-25.65L71.65-25.65 71.65-10.95Q71.65 0.4 60.7 0.4L60.7 0.4ZM60.7-6.35Q61.75-6.35 62.25-7.1 62.75-7.85 62.75-9.15L62.75-9.15 62.75-27.05Q62.75-30.25 60.7-30.25L60.7-30.25Q58.65-30.25 58.65-27.05L58.65-27.05 58.65-9.15Q58.65-7.85 59.15-7.1 59.65-6.35 60.7-6.35L60.7-6.35ZM74.89 7.3L74.89-36.6 83.79-36.6 83.79-34.65Q85.69-37 89.04-37L89.04-37Q93.29-37 94.97-34.15 96.64-31.3 96.64-26.25L96.64-26.25 96.64-12.7Q96.64-8.4 96.14-5.68 95.64-2.95 93.94-1.28 92.24 0.4 88.79 0.4L88.79 0.4Q85.49 0.4 83.79-1.45L83.79-1.45 83.79 7.3 74.89 7.3ZM85.89-6.4Q87.09-6.4 87.44-7.5 87.79-8.6 87.79-10.7L87.79-10.7 87.79-26.25Q87.79-28.15 87.44-29.15 87.09-30.15 85.84-30.15L85.84-30.15Q83.79-30.15 83.79-26.35L83.79-26.35 83.79-10.3Q83.79-8.45 84.22-7.43 84.64-6.4 85.89-6.4L85.89-6.4ZM113.34 0L105.24 0 105.24-14.15 98.39-42.95 106.89-42.95 109.29-28.4 111.69-42.95 120.19-42.95 113.34-14.15 113.34 0ZM132.84 0.4Q121.89 0.4 121.89-10.95L121.89-10.95 121.89-25.65Q121.89-30.85 124.81-33.93 127.74-37 132.84-37L132.84-37Q137.94-37 140.86-33.93 143.79-30.85 143.79-25.65L143.79-25.65 143.79-10.95Q143.79 0.4 132.84 0.4L132.84 0.4ZM132.84-6.35Q133.89-6.35 134.39-7.1 134.89-7.85 134.89-9.15L134.89-9.15 134.89-27.05Q134.89-30.25 132.84-30.25L132.84-30.25Q130.79-30.25 130.79-27.05L130.79-27.05 130.79-9.15Q130.79-7.85 131.29-7.1 131.79-6.35 132.84-6.35L132.84-6.35ZM154.09 0.4Q149.99 0.4 148.46-2.05 146.94-4.5 146.94-9.35L146.94-9.35 146.94-36.6 155.74-36.6 155.74-11.1Q155.74-10.75 155.74-9.22 155.74-7.7 156.21-7.08 156.69-6.45 157.69-6.45L157.69-6.45Q159.04-6.45 159.39-7.58 159.74-8.7 159.74-10.8L159.74-10.8 159.74-11.1 159.79-36.6 168.49-36.6 168.49 0 159.74 0 159.74-3.9Q158.84-1.6 157.64-0.6 156.44 0.4 154.09 0.4L154.09 0.4ZM171.98 0L171.98-36.6 180.73-36.6 180.73-32.55Q181.38-34.7 183.01-35.88 184.63-37.05 187.03-37.05L187.03-37.05 187.03-29.75Q185.18-29.75 182.96-29.23 180.73-28.7 180.73-28L180.73-28 180.73 0 171.98 0ZM199.33 0.4Q194.63 0.4 191.81-2.55 188.98-5.5 188.98-10.65L188.98-10.65 188.98-30.45Q188.98-36.85 191.53-40.1 194.08-43.35 199.53-43.35L199.53-43.35Q204.28-43.35 207.18-40.75 210.08-38.15 210.08-33.25L210.08-33.25 210.08-25.85 201.53-25.85 201.53-32.2Q201.53-34.05 201.08-34.75 200.63-35.45 199.53-35.45L199.53-35.45Q198.38-35.45 197.96-34.65 197.53-33.85 197.53-32.3L197.53-32.3 197.53-10.75Q197.53-9.05 198.03-8.28 198.53-7.5 199.53-7.5L199.53-7.5Q201.53-7.5 201.53-10.75L201.53-10.75 201.53-18.5 210.18-18.5 210.18-10.4Q210.18 0.4 199.33 0.4L199.33 0.4ZM219.53 0.4Q215.28 0.4 213.7-2.43 212.13-5.25 212.13-10.5L212.13-10.5Q212.13-14.8 213.25-17.1 214.38-19.4 216.38-20.48 218.38-21.55 222.48-22.85L222.48-22.85 224.88-23.65 224.88-23.75 224.88-27.4Q224.88-28.85 224.3-29.63 223.73-30.4 222.93-30.4L222.93-30.4Q222.23-30.4 221.7-29.75 221.18-29.1 221.18-28L221.18-28 221.18-25.8 212.68-25.8 212.68-27Q212.68-32.4 215.2-34.7 217.73-37 223.43-37L223.43-37Q227.98-37 230.83-34.63 233.68-32.25 233.68-27.9L233.68-27.9 233.68 0 224.98 0 224.98-4.35Q224.33-2.1 222.9-0.85 221.48 0.4 219.53 0.4L219.53 0.4ZM222.98-6.4Q223.98-6.4 224.4-7.23 224.83-8.05 224.83-9.25L224.83-9.25 224.83-19.45Q222.88-18.7 221.95-17.55 221.03-16.4 221.03-14.35L221.03-14.35 221.03-9.65Q221.03-6.4 222.98-6.4L222.98-6.4ZM237.03 0L237.03-36.6 245.78-36.6 245.78-32.55Q246.43-34.7 248.05-35.88 249.68-37.05 252.08-37.05L252.08-37.05 252.08-29.75Q250.22-29.75 248-29.23 245.78-28.7 245.78-28L245.78-28 245.78 0 237.03 0Z" opacity="1" transform="matrix(1,0,0,1,0,0)" fill="#b91c1c" class="wordmark-text-0" data-fill-palette-color="primary" id="text-0"></path></svg></g></svg></g></svg></g></svg></g><g><svg viewBox="0 0 244.43135999999998 90.17087096533412" height="90.17087096533412" width="244.43135999999998"><g><svg xmlns="http://www.w3.org/2000/svg" xmlns:xlink="http://www.w3.org/1999/xlink" version="1.1" x="0" y="0" viewBox="0.2962725501305952 33.94692138280563 99.40639946256867 36.67107861719437" enable-background="new 0 33.947 100 36.669" xml:space="preserve" width="244.43135999999998" height="90.17087096533412" class="icon-icon-0" data-fill-palette-color="accent" id="icon-0"><g fill="#ff908b" data-fill-palette-color="accent"><path d="M15.524 55.357c-4.213 0-7.629 3.418-7.629 7.631s3.416 7.63 7.629 7.63c4.215 0 7.63-3.417 7.63-7.63S19.738 55.357 15.524 55.357zM15.524 66.189c-1.778 0-3.219-1.441-3.219-3.22s1.441-3.221 3.219-3.221c1.777 0 3.219 1.442 3.219 3.221C18.742 64.748 17.301 66.189 15.524 66.189z" fill="#ff908b" data-fill-palette-color="accent"></path><path d="M82.53 55.355c-4.215 0-7.632 3.417-7.632 7.629 0 4.214 3.417 7.631 7.632 7.631 4.212 0 7.63-3.417 7.63-7.631C90.16 58.772 86.742 55.355 82.53 55.355zM82.53 66.189c-1.778 0-3.222-1.441-3.222-3.22s1.443-3.221 3.222-3.221 3.223 1.442 3.223 3.221S84.309 66.189 82.53 66.189z" fill="#ff908b" data-fill-palette-color="accent"></path><path d="M78.23 44.515c0 0-18.764-8.75-24.754-10.018-5.987-1.268-26.597-0.115-28.554 1.151l-11.515 5.64L2.125 46.815 0.298 57.465c0 0-0.05 6.318 0.388 7.773h5.527l0.071-2.25c0-5.103 4.138-9.24 9.243-9.24 5.103 0 9.238 4.138 9.238 9.24l0.158 2.25h48.359l0.007-2.83c0-5.103 3.856-8.87 8.959-8.87s9.523 3.768 9.523 8.87l0.19 2.616c0 0 5.845 0.33 7.688-0.361 0 0 0.69-9.787-2.878-13.357C93.603 48.308 87.213 46.44 78.23 44.515zM25.956 45.896c0 0 2.363-5.01 4.943-6.924 1.911-1.627 12.446-1.583 12.446-1.583l0.389 9.715L25.956 45.896zM71.613 48.198l-24.698-0.978-0.577-9.846c9.154-0.344 19.576 4.549 25.563 8.06C77.89 48.946 71.613 48.198 71.613 48.198z" fill="#ff908b" data-fill-palette-color="accent"></path></g></svg></g></svg></g></svg></g><defs></defs></svg><rect width="395.52" height="54.13622922520419" fill="none" stroke="none" visibility="hidden"></rect></g></svg></g></svg>